<svg width="321" height="320" viewBox="0 0 321 320" fill="none" xmlns="http://www.w3.org/2000/svg">
<circle cx="1" cy="1" r="1" transform="matrix(-0.844004 -0.536337 -0.536337 0.844004 71.9458 198.671)" fill="#30354C"/>
<circle cx="1" cy="1" r="1" transform="matrix(-0.844004 -0.536337 -0.536337 0.844004 177.861 253.647)" fill="#30354C"/>
<circle cx="83.2257" cy="207.024" r="2.5" transform="rotate(32.4346 83.2257 207.024)" stroke="#FF5F68"/>
<circle cx="83.5997" cy="192.451" r="2.5" transform="rotate(32.4346 83.5997 192.451)" fill="#2CAAE6"/>
<circle cx="156.451" cy="267.451" r="2.5" transform="rotate(32.4346 156.451 267.451)" fill="#2CAAE6"/>
<path fill-rule="evenodd" clip-rule="evenodd" d="M60.6092 214.665C64.2675 217.059 65.1907 222.182 62.662 226.161L62.662 226.161L62.6623 226.161C65.1911 222.182 70.2217 220.842 73.9426 223.137C70.2843 220.743 69.3611 215.62 71.8898 211.64L71.8903 211.64C71.8903 211.64 71.8902 211.64 71.8902 211.64C71.89 211.64 71.8897 211.64 71.8895 211.641C69.3607 215.62 64.3302 216.96 60.6092 214.665Z" fill="#FD6036"/>
<path fill-rule="evenodd" clip-rule="evenodd" d="M188.641 264.122C192.3 266.516 193.223 271.639 190.694 275.618L190.694 275.618L190.695 275.618C193.223 271.639 198.254 270.299 201.975 272.594C198.317 270.2 197.393 265.077 199.922 261.098L199.923 261.097C199.922 261.097 199.922 261.097 199.922 261.097C199.922 261.097 199.922 261.097 199.922 261.098C197.393 265.077 192.362 266.417 188.641 264.122Z" fill="#3E20F5"/>
<path fill-rule="evenodd" clip-rule="evenodd" d="M168.026 275.233L168.026 275.233L168.026 275.234C169.691 276.291 170.128 278.588 169.018 280.387C170.168 278.628 172.414 278.045 174.075 279.077C172.422 278.001 172.003 275.691 173.143 273.896C173.143 273.896 173.142 273.896 173.142 273.896C171.995 275.701 169.705 276.3 168.026 275.233Z" fill="#CCFF00"/>
<path d="M113.099 106.023C138.333 62.3166 194.22 47.3417 237.927 72.5757C281.633 97.8096 296.608 153.697 271.374 197.403C246.14 241.11 190.253 256.085 146.546 230.851C102.84 205.617 87.865 149.73 113.099 106.023Z" stroke="#30354C" stroke-width="5"/>
<mask id="mask0_301_391" style="mask-type:alpha" maskUnits="userSpaceOnUse" x="58" y="50" width="229" height="226">
<path d="M239.177 70.4099C194.275 44.4856 94.6307 39.1305 68.7064 84.0327C42.782 128.935 69.6904 242.757 114.593 268.681C159.495 294.605 247.615 243.555 273.539 198.653C299.464 153.75 284.079 96.3342 239.177 70.4099Z" fill="#30354C"/>
</mask>
<g mask="url(#mask0_301_391)">
<path d="M297.591 95.2301L258.047 84.6343C253.913 83.5267 249.665 85.9797 248.557 90.1131L223.118 185.053C222.01 189.187 224.463 193.435 228.597 194.543L268.141 205.139C272.274 206.246 276.523 203.793 277.63 199.66L303.069 104.72C304.177 100.586 301.724 96.3376 297.591 95.2301Z" fill="#30354C"/>
<path d="M66.9979 151.317C65.9772 155.126 66.5116 159.185 68.4833 162.6C70.4551 166.015 73.7028 168.507 77.512 169.528L140.946 186.525C136.95 192.852 133.471 200.831 131.074 209.775C124.664 233.699 128.429 255.496 139.484 258.459C143.059 259.417 146.97 258.272 150.833 255.486C152.267 254.458 153.301 252.968 153.763 251.266L159.841 228.581C160.616 225.692 162.313 223.134 164.675 221.299L191.87 200.178L219.026 179.073L219.628 176.825L242.723 90.6359L126.561 59.5106C122.752 58.4898 118.693 59.0242 115.277 60.9962C111.861 62.9682 109.369 66.2164 108.348 70.0261C107.327 73.8358 107.862 77.8949 109.834 81.3106C111.806 84.7263 115.054 87.2187 118.864 88.2395L112.353 86.4949C108.543 85.4741 104.484 86.0085 101.068 87.9806C97.6524 89.9526 95.16 93.2008 94.1392 97.0104C93.1184 100.82 93.6528 104.879 95.6249 108.295C97.5969 111.711 100.845 114.203 104.655 115.224L98.7894 113.652C96.9028 113.147 94.9352 113.018 92.9988 113.273C91.0625 113.528 89.1953 114.162 87.504 115.138C85.8126 116.115 84.3302 117.415 83.1414 118.965C81.9526 120.515 81.0807 122.283 80.5754 124.17C79.5569 127.971 80.0868 132.021 82.049 135.432C84.0113 138.844 87.2458 141.338 91.0438 142.368L85.2083 140.805C81.3995 139.786 77.342 140.321 73.9274 142.292C70.5128 144.263 68.0204 147.509 66.9979 151.317Z" fill="#FF5F68"/>
</g>
<path fill-rule="evenodd" clip-rule="evenodd" d="M125.238 262.552L125.238 262.552L125.187 262.655L122.015 265.944L117.656 265.184L117.664 265.188L120.974 268.371L120.221 272.734L120.17 272.837L120.17 272.837L120.222 272.734L123.393 269.445L127.752 270.205L127.744 270.201L124.434 267.018L125.187 262.655L125.238 262.552Z" fill="#8800BD"/>
</svg>
