<svg width="235" height="239" viewBox="0 0 235 239" fill="none" xmlns="http://www.w3.org/2000/svg">
<circle cx="1" cy="1" r="1" transform="matrix(-0.930126 -0.367241 -0.367241 0.930126 56.2007 11.5527)" fill="#30354C"/>
<circle cx="1" cy="1" r="1" transform="matrix(-0.930126 -0.367241 -0.367241 0.930126 170.595 45.5312)" fill="#30354C"/>
<circle cx="68.8552" cy="17.6245" r="2.5" transform="rotate(21.5456 68.8552 17.6245)" stroke="#40FF62"/>
<circle cx="66.4697" cy="3.24342" r="2.5" transform="rotate(21.5456 66.4697 3.24342)" fill="#2CAAE6"/>
<circle cx="177.243" cy="32.0403" r="2.5" transform="rotate(21.5456 177.243 32.0403)" fill="#2CAAE6"/>
<path fill-rule="evenodd" clip-rule="evenodd" d="M48.0804 29.396C52.1247 31.0492 54.0039 35.8965 52.2862 40.2794C54.026 35.9052 58.7098 33.6492 62.7927 35.2049C58.7483 33.5516 56.8691 28.7044 58.5869 24.3214C56.847 28.6956 52.1632 30.9516 48.0804 29.396Z" fill="#FD6036"/>
<path fill-rule="evenodd" clip-rule="evenodd" d="M183.15 53.7759C187.195 55.4291 189.074 60.2764 187.356 64.6593C189.096 60.2851 193.78 58.0291 197.862 59.5847C193.818 57.9315 191.939 53.0843 193.657 48.7013C191.917 53.0755 187.233 55.3315 183.15 53.7759Z" fill="#3E20F5"/>
<path fill-rule="evenodd" clip-rule="evenodd" d="M160.19 17.3714C162.006 18.1104 162.854 20.2784 162.098 22.2463C162.891 20.2908 164.996 19.2873 166.828 19.9921C165.003 19.2527 164.152 17.0711 164.921 15.0965C164.135 17.0623 162.027 18.0743 160.19 17.3714Z" fill="#CCFF00"/>
<path d="M185.26 144.916C185.26 195.384 144.348 236.297 93.8802 236.297C43.4123 236.297 2.5 195.384 2.5 144.916C2.5 94.4485 43.4123 53.5361 93.8802 53.5361C144.348 53.5361 185.26 94.4485 185.26 144.916Z" stroke="#30354C" stroke-width="5"/>
<mask id="mask0_284_415" style="mask-type:alpha" maskUnits="userSpaceOnUse" x="0" y="4" width="235" height="235">
<path d="M93.8802 238.797C145.729 238.797 234.701 193.613 234.701 141.764C234.701 89.9153 154.486 4.79688 102.638 4.79688C50.7891 4.79688 0 93.068 0 144.917C0 196.765 42.0316 238.797 93.8802 238.797Z" fill="#30354C"/>
</mask>
<g mask="url(#mask0_284_415)">
<path d="M30.8825 246.509L70.4265 235.914C74.5599 234.806 77.0128 230.557 75.9053 226.424L50.4661 131.484C49.3586 127.35 45.11 124.898 40.9766 126.005L1.43256 136.601C-2.70082 137.708 -5.15369 141.957 -4.04615 146.09L21.393 241.031C22.5005 245.164 26.7491 247.617 30.8825 246.509Z" fill="#30354C"/>
<path d="M202.538 82.6401C201.518 78.831 199.026 75.5833 195.61 73.6115C192.195 71.6397 188.137 71.1054 184.327 72.1261L120.893 89.1233C121.191 81.6458 120.214 72.9961 117.818 64.0521C111.407 40.1278 97.2482 23.1335 86.1927 26.0958C82.6175 27.0538 79.803 30.0007 77.8505 34.3451C77.1229 35.9515 76.972 37.7598 77.4233 39.4645L83.5017 62.1493C84.2757 65.0388 84.0843 68.1019 82.9567 70.8725L69.9657 102.761L57.0001 134.617L57.6026 136.865L80.6968 223.054L196.858 191.929C200.668 190.908 203.916 188.415 205.888 185C207.86 181.584 208.394 177.525 207.374 173.715C206.353 169.905 203.86 166.657 200.445 164.685C197.029 162.713 192.97 162.179 189.16 163.2L195.671 161.455C199.481 160.434 202.729 157.942 204.701 154.526C206.673 151.11 207.207 147.051 206.187 143.242C205.166 139.432 202.673 136.184 199.258 134.212C195.842 132.24 191.783 131.705 187.973 132.726L193.838 131.154C195.725 130.649 197.493 129.777 199.043 128.588C200.592 127.399 201.892 125.916 202.869 124.225C203.845 122.533 204.479 120.666 204.734 118.729C204.988 116.793 204.859 114.825 204.353 112.939C203.335 109.138 200.851 105.895 197.446 103.922C194.041 101.949 189.993 101.406 186.188 102.413L192.024 100.849C195.832 99.8271 199.078 97.3351 201.05 93.9207C203.021 90.5064 203.557 86.449 202.538 82.6401Z" fill="#40FF62"/>
</g>
<path fill-rule="evenodd" clip-rule="evenodd" d="M200.15 30.8521L200.15 30.8521L200.099 30.9546L196.927 34.2433L192.567 33.4838L192.465 33.4329L192.465 33.4329L192.576 33.4884L195.887 36.6709L195.134 41.0341L195.082 41.1369L195.083 41.1369L195.134 41.034L198.305 37.7453L202.666 38.5048L202.731 38.5374L202.731 38.5374L202.656 38.5002L199.346 35.3177L200.099 30.9545L200.15 30.8521Z" fill="#8800BD"/>
</svg>
